<svg width="24" height="24" viewBox="0 0 24 24" fill="none" xmlns="http://www.w3.org/2000/svg">
<path d="M3 12.75C2.58586 12.75 2.25 12.4141 2.25 12V3C2.25 2.58586 2.58586 2.25 3 2.25H16.5C16.9141 2.25 17.25 2.58586 17.25 3C17.25 3.41414 16.9141 3.75 16.5 3.75H3.75V12C3.75 12.4141 3.41414 12.75 3 12.75ZM21 22.5H3C2.58586 22.5 2.25 22.1641 2.25 21.75V19.5103C2.25 19.0962 2.58586 18.7603 3 18.7603C3.41414 18.7603 3.75 19.0962 3.75 19.5103V21H20.25V7.5C20.25 7.08586 20.5859 6.75 21 6.75C21.4141 6.75 21.75 7.08586 21.75 7.5V21.75C21.75 22.1641 21.4141 22.5 21 22.5Z" fill="#007C84"/>
<path d="M5.05944 15.049C4.90499 15.049 4.74936 15.0016 4.61553 14.9029C4.28178 14.6575 4.2103 14.1881 4.45592 13.8543L7.71632 9.42279C7.96171 9.08904 8.43116 9.01779 8.76491 9.26318C9.09866 9.50857 9.17014 9.97802 8.92452 10.3118L5.66413 14.7436C5.51717 14.9433 5.28983 15.049 5.05944 15.049ZM14.156 13.2658C13.9793 13.2658 13.8019 13.2037 13.6594 13.0774L10.4015 10.1946C10.0912 9.92013 10.0624 9.44599 10.3369 9.13591C10.6113 8.8256 11.0855 8.79677 11.3955 9.07122L14.6533 11.954C14.9637 12.2285 14.9925 12.7026 14.718 13.0127C14.5697 13.1803 14.3632 13.2658 14.156 13.2658ZM16.4953 12.9485C16.3985 12.9485 16.2998 12.9295 16.2049 12.8897C15.8231 12.7291 15.6436 12.2894 15.8041 11.9076L18.4101 5.70958C18.5707 5.32779 19.0104 5.14825 19.3922 5.3088C19.774 5.46935 19.9535 5.90903 19.793 6.29083L17.1869 12.4891C17.0665 12.776 16.788 12.9485 16.4953 12.9485Z" fill="#007C84"/>
<path d="M4.07812 13.1484C2.6543 13.1484 1.5 14.3027 1.5 15.7266C1.5 17.1504 2.6543 18.3047 4.07812 18.3047C5.50195 18.3047 6.65625 17.1504 6.65625 15.7266C6.65625 14.3027 5.50195 13.1484 4.07812 13.1484ZM4.07812 16.6641C3.56039 16.6641 3.14062 16.2443 3.14062 15.7266C3.14062 15.2088 3.56039 14.7891 4.07812 14.7891C4.59586 14.7891 5.01562 15.2088 5.01562 15.7266C5.01562 16.2443 4.59586 16.6641 4.07812 16.6641ZM9.42188 6C7.99805 6 6.84375 7.1543 6.84375 8.57812C6.84375 10.002 7.99805 11.1562 9.42188 11.1562C10.8457 11.1562 12 10.002 12 8.57812C12 7.1543 10.8457 6 9.42188 6ZM9.42188 9.51562C8.90414 9.51562 8.48438 9.09586 8.48438 8.57812C8.48438 8.06039 8.90414 7.64062 9.42188 7.64062C9.93961 7.64062 10.3594 8.06039 10.3594 8.57812C10.3594 9.09586 9.93961 9.51562 9.42188 9.51562ZM15.4453 11.3438C14.0215 11.3438 12.8672 12.498 12.8672 13.9219C12.8672 15.3457 14.0215 16.5 15.4453 16.5C16.8691 16.5 18.0234 15.3457 18.0234 13.9219C18.0234 12.498 16.8691 11.3438 15.4453 11.3438ZM15.4453 14.8594C14.9276 14.8594 14.5078 14.4396 14.5078 13.9219C14.5078 13.4041 14.9276 12.9844 15.4453 12.9844C15.963 12.9844 16.3828 13.4041 16.3828 13.9219C16.3828 14.4396 15.963 14.8594 15.4453 14.8594ZM19.9219 1.5C18.498 1.5 17.3438 2.6543 17.3438 4.07812C17.3438 5.50195 18.498 6.65625 19.9219 6.65625C21.3457 6.65625 22.5 5.50195 22.5 4.07812C22.5 2.6543 21.3457 1.5 19.9219 1.5ZM19.9219 5.01562C19.4041 5.01562 18.9844 4.59586 18.9844 4.07812C18.9844 3.56039 19.4041 3.14062 19.9219 3.14062C20.4396 3.14062 20.8594 3.56039 20.8594 4.07812C20.8594 4.59586 20.4396 5.01562 19.9219 5.01562Z" fill="#007C84"/>
</svg>
