<svg width="24" height="24" viewBox="0 0 24 24" fill="none" xmlns="http://www.w3.org/2000/svg">
<path fill-rule="evenodd" clip-rule="evenodd" d="M3 8.60329L12 2.25L21 8.60329V21.4105H13.4211V16.6737H10.5789V21.4105H3V8.60329ZM15.3158 19.5158H19.1053V9.58618L12 4.57105L4.89474 9.58618V19.5158H8.68421V14.7789H15.3158V19.5158ZM9.15789 10.5158C9.15789 8.94967 10.4339 7.67368 12 7.67368C13.5661 7.67368 14.8421 8.94671 14.8421 10.5158C14.8421 12.0819 13.5661 13.3579 12 13.3579C10.4339 13.3579 9.15789 12.0819 9.15789 10.5158ZM10.5789 10.5158C10.5789 11.3003 11.2155 11.9368 12 11.9368C12.7845 11.9368 13.4211 11.3003 13.4211 10.5158C13.4211 9.73125 12.7845 9.09474 12 9.09474C11.2155 9.09474 10.5789 9.73125 10.5789 10.5158Z" fill="#007C84"/>
</svg>
