<svg width="24" height="24" viewBox="0 0 24 24" fill="none" xmlns="http://www.w3.org/2000/svg">
<path fill-rule="evenodd" clip-rule="evenodd" d="M18.364 6.34315C18.1687 6.53841 17.8521 6.53841 17.6569 6.34315C17.4616 6.14789 17.4616 5.83131 17.6569 5.63605C17.8521 5.44079 18.1687 5.44079 18.364 5.63605C18.5593 5.83131 18.5593 6.14789 18.364 6.34315ZM16.9644 7.06465C17.5512 7.636 18.4901 7.6312 19.0711 7.05026C19.6569 6.46447 19.6569 5.51473 19.0711 4.92894C18.4853 4.34316 17.5356 4.34316 16.9498 4.92894C16.3688 5.50989 16.364 6.44881 16.9354 7.03567L16.2427 6.34297C15.8522 5.95245 15.219 5.95245 14.8285 6.34297L4.22192 16.9495C3.8314 17.3401 3.83139 17.9732 4.22192 18.3637L5.63612 19.7779C6.02665 20.1685 6.65981 20.1685 7.05034 19.7779L9.87867 16.9496L7.05034 14.1213L7.75745 13.4142L10.5858 16.2425L14.1214 12.7069L11.293 9.8785L12.0001 9.17139L14.8285 11.9998L17.6569 9.17139C18.0474 8.78086 18.0474 8.1477 17.6569 7.75717L16.9644 7.06465Z" fill="#007C84"/>
</svg>
