<svg width="32" height="32" viewBox="0 0 32 32" fill="none" xmlns="http://www.w3.org/2000/svg">
<rect width="32" height="32" rx="16" fill="#F5FAFA"/>
<path d="M16 8C11.5808 8 8 11.5808 8 16C8 20.4192 11.5808 24 16 24C20.4192 24 24 20.4192 24 16C24 11.5808 20.4192 8 16 8ZM16 23.3346C11.9577 23.3346 8.66538 20.0462 8.66538 16C8.66538 11.9577 11.9538 8.66538 16 8.66538C20.0423 8.66538 23.3346 11.9538 23.3346 16C23.3346 20.0423 20.0423 23.3346 16 23.3346Z" fill="#007C84" stroke="#007C84" stroke-width="0.5"/>
<path d="M16.1386 11.769C14.477 11.769 13.5501 12.5498 13.5386 14.1614H14.2617C14.2386 12.9921 14.8578 12.3729 16.104 12.3729C16.9963 12.3729 17.7424 12.996 17.7424 13.9037C17.7424 14.4921 17.4232 14.969 16.9963 15.369C16.127 16.169 15.8809 16.7537 15.8386 17.8498H16.5693C16.6117 16.8575 16.5886 16.669 17.4655 15.7998C18.0501 15.2537 18.4617 14.7114 18.4617 13.869C18.4617 12.5537 17.4078 11.769 16.1386 11.769ZM16.1655 18.9344C15.804 18.9344 15.5117 19.2229 15.5117 19.5806C15.5117 19.9383 15.804 20.2306 16.1655 20.2306C16.527 20.2306 16.8193 19.9421 16.8193 19.5806C16.8193 19.2229 16.527 18.9344 16.1655 18.9344Z" fill="#007C84" stroke="#007C84" stroke-width="0.5"/>
</svg>
