<svg width="32" height="32" viewBox="0 0 32 32" fill="none" xmlns="http://www.w3.org/2000/svg">
<rect width="32" height="32" rx="16" fill="#F5FAFA"/>
<path d="M17.3686 9.14286L17.5828 10.6286L17.6684 11.2429L18.2252 11.5C18.4536 11.6143 18.6963 11.7429 18.9104 11.8857L19.41 12.2143L19.9668 12L21.4229 11.4286L22.7791 13.7L21.5799 14.6143L21.0803 15L21.1374 15.6286C21.1517 15.7571 21.1517 15.8857 21.1517 16C21.1517 16.1143 21.1517 16.2429 21.1374 16.3714L21.0803 17L21.5799 17.3857L22.7791 18.3L21.4372 20.5714L19.9668 20L19.41 19.7857L18.9104 20.1143C18.682 20.2714 18.4536 20.4 18.2252 20.5L17.6684 20.7571L17.5828 21.3571L17.3686 22.8571H14.6277L14.4136 21.3714L14.3279 20.7571L13.7712 20.5C13.5428 20.3857 13.3001 20.2571 13.0859 20.1143L12.5863 19.7857L12.0295 20L10.5734 20.5714L9.21724 18.3L10.4164 17.3857L10.916 17L10.8589 16.3714C10.8447 16.2429 10.8447 16.1143 10.8447 16C10.8447 15.8857 10.8447 15.7571 10.8589 15.6286L10.916 15L10.4164 14.6143L9.21724 13.7L10.5591 11.4286L12.0295 12L12.5863 12.2143L13.0859 11.8857C13.3143 11.7286 13.5428 11.6 13.7712 11.5L14.3279 11.2429L14.4136 10.6429L14.6277 9.14286H17.3686ZM17.5257 8H14.4707C13.9853 8 13.5856 8.34286 13.5142 8.8L13.2858 10.4571C13.0003 10.5857 12.729 10.7429 12.4435 10.9286L10.8304 10.3C10.7162 10.2571 10.602 10.2429 10.4878 10.2429C10.1452 10.2429 9.81681 10.4143 9.65978 10.7143L8.13229 13.2857C7.8896 13.6857 7.98953 14.2143 8.3607 14.5L9.71688 15.5286C9.70261 15.7 9.68833 15.8571 9.68833 16C9.68833 16.1429 9.68833 16.3 9.71688 16.4714L8.3607 17.5C7.98953 17.7857 7.8896 18.2857 8.13229 18.7143L9.6455 21.2714C9.81681 21.5714 10.1452 21.7571 10.4878 21.7571C10.602 21.7571 10.7019 21.7429 10.8161 21.7L12.4293 21.0714C12.7005 21.2571 12.986 21.4143 13.2715 21.5429L13.5142 23.1857C13.5713 23.6429 13.9853 24 14.4707 24H17.5257C18.011 24 18.4107 23.6571 18.4821 23.2L18.7248 21.5429C19.0103 21.4143 19.2816 21.2571 19.5671 21.0714L21.1802 21.7C21.2944 21.7429 21.4086 21.7571 21.5228 21.7571C21.8654 21.7571 22.1938 21.5857 22.3508 21.2857L23.8783 18.7C24.1067 18.2857 24.0068 17.7857 23.6356 17.5L22.2794 16.4714C22.2937 16.3286 22.308 16.1714 22.308 16C22.308 15.8286 22.2937 15.6714 22.2794 15.5286L23.6356 14.5C24.0068 14.2143 24.1067 13.7143 23.864 13.2857L22.3508 10.7286C22.1795 10.4286 21.8512 10.2429 21.5086 10.2429C21.3944 10.2429 21.2944 10.2571 21.1802 10.3L19.5671 10.9286C19.2958 10.7429 19.0103 10.5857 18.7248 10.4571L18.4821 8.81429C18.4107 8.34286 18.011 8 17.5257 8ZM15.9982 13.7143C17.2544 13.7143 18.2823 14.7429 18.2823 16C18.2823 17.2571 17.2544 18.2857 15.9982 18.2857C14.7419 18.2857 13.7141 17.2571 13.7141 16C13.7141 14.7429 14.7419 13.7143 15.9982 13.7143ZM15.9982 12.5714C14.1138 12.5714 12.572 14.1143 12.572 16C12.572 17.8857 14.1138 19.4286 15.9982 19.4286C17.8825 19.4286 19.4243 17.8857 19.4243 16C19.4243 14.1143 17.8825 12.5714 15.9982 12.5714Z" fill="#007C84"/>
</svg>
